<svg width="38" height="38" viewBox="0 0 38 38" fill="none" xmlns="http://www.w3.org/2000/svg">
<path d="M26.9166 17.4166H14.8991L20.1241 12.2074C20.4222 11.9092 20.5897 11.5049 20.5897 11.0832C20.5897 10.6616 20.4222 10.2572 20.1241 9.95905C19.8259 9.66091 19.4216 9.49341 18.9999 9.49341C18.5783 9.49341 18.1739 9.66091 17.8758 9.95905L9.95908 17.8757C9.81494 18.0263 9.70194 18.2039 9.62658 18.3982C9.46822 18.7837 9.46822 19.2161 9.62658 19.6016C9.70194 19.7959 9.81494 19.9735 9.95908 20.1241L17.8758 28.0407C18.0229 28.1891 18.1981 28.3069 18.391 28.3873C18.5839 28.4677 18.7909 28.5091 18.9999 28.5091C19.2089 28.5091 19.4159 28.4677 19.6088 28.3873C19.8018 28.3069 19.9769 28.1891 20.1241 28.0407C20.2725 27.8935 20.3903 27.7184 20.4707 27.5255C20.551 27.3325 20.5924 27.1256 20.5924 26.9166C20.5924 26.7075 20.551 26.5006 20.4707 26.3076C20.3903 26.1147 20.2725 25.9396 20.1241 25.7924L14.8991 20.5832H26.9166C27.3365 20.5832 27.7392 20.4164 28.0362 20.1195C28.3331 19.8225 28.4999 19.4198 28.4999 18.9999C28.4999 18.58 28.3331 18.1772 28.0362 17.8803C27.7392 17.5834 27.3365 17.4166 26.9166 17.4166Z" fill="#1B1B1B"/>
</svg>
