<svg width="36" height="36" viewBox="0 0 36 36" fill="none" xmlns="http://www.w3.org/2000/svg">
<path d="M18.0001 3C15.0908 3.00553 12.2459 3.85697 9.81192 5.45061C7.37794 7.04425 5.45992 9.31131 4.29149 11.9757C3.12305 14.64 2.75464 17.5866 3.23111 20.4566C3.70759 23.3266 5.00839 25.9961 6.97507 28.14C8.37971 29.6626 10.0845 30.8777 11.982 31.7088C13.8795 32.5399 15.9285 32.969 18.0001 32.969C20.0716 32.969 22.1207 32.5399 24.0182 31.7088C25.9157 30.8777 27.6204 29.6626 29.0251 28.14C30.9918 25.9961 32.2926 23.3266 32.769 20.4566C33.2455 17.5866 32.8771 14.64 31.7087 11.9757C30.5402 9.31131 28.6222 7.04425 26.1882 5.45061C23.7543 3.85697 20.9094 3.00553 18.0001 3ZM18.0001 30C14.8928 29.9953 11.9084 28.7854 9.67507 26.625C10.3531 24.9743 11.5066 23.5624 12.989 22.5688C14.4713 21.5752 16.2155 21.0447 18.0001 21.0447C19.7846 21.0447 21.5289 21.5752 23.0112 22.5688C24.4935 23.5624 25.647 24.9743 26.3251 26.625C24.0917 28.7854 21.1074 29.9953 18.0001 30ZM15.0001 15C15.0001 14.4067 15.176 13.8266 15.5057 13.3333C15.8353 12.8399 16.3038 12.4554 16.852 12.2284C17.4002 12.0013 18.0034 11.9419 18.5853 12.0576C19.1673 12.1734 19.7018 12.4591 20.1214 12.8787C20.541 13.2982 20.8267 13.8328 20.9424 14.4147C21.0582 14.9967 20.9988 15.5999 20.7717 16.148C20.5447 16.6962 20.1601 17.1648 19.6668 17.4944C19.1734 17.8241 18.5934 18 18.0001 18C17.2044 18 16.4414 17.6839 15.8788 17.1213C15.3161 16.5587 15.0001 15.7956 15.0001 15ZM28.3651 24C27.0249 21.7076 24.9622 19.9245 22.5001 18.93C23.2638 18.064 23.7615 16.996 23.9333 15.8542C24.1051 14.7123 23.9438 13.5452 23.4687 12.4927C22.9936 11.4403 22.225 10.5473 21.2549 9.92095C20.2849 9.29456 19.1548 8.96137 18.0001 8.96137C16.8454 8.96137 15.7152 9.29456 14.7452 9.92095C13.7752 10.5473 13.0065 11.4403 12.5314 12.4927C12.0564 13.5452 11.8951 14.7123 12.0669 15.8542C12.2387 16.996 12.7363 18.064 13.5001 18.93C11.038 19.9245 8.97528 21.7076 7.63507 24C6.56699 22.1807 6.00265 20.1097 6.00007 18C6.00007 14.8174 7.26436 11.7652 9.51479 9.51472C11.7652 7.26428 14.8175 6 18.0001 6C21.1827 6 24.2349 7.26428 26.4854 9.51472C28.7358 11.7652 30.0001 14.8174 30.0001 18C29.9975 20.1097 29.4332 22.1807 28.3651 24Z" fill="#545454"/>
</svg>
