<svg width="36" height="36" viewBox="0 0 36 36" fill="none" xmlns="http://www.w3.org/2000/svg">
<path d="M3.74999 15.8401L17.25 23.6401C17.478 23.7717 17.7367 23.8411 18 23.8411C18.2633 23.8411 18.522 23.7717 18.75 23.6401L32.25 15.8401C32.4773 15.7082 32.666 15.519 32.7971 15.2913C32.9283 15.0636 32.9973 14.8054 32.9973 14.5426C32.9973 14.2798 32.9283 14.0216 32.7971 13.7939C32.666 13.5662 32.4773 13.377 32.25 13.2451L18.75 5.4451C18.522 5.31345 18.2633 5.24414 18 5.24414C17.7367 5.24414 17.478 5.31345 17.25 5.4451L3.74999 13.2451C3.52268 13.377 3.334 13.5662 3.20284 13.7939C3.07168 14.0216 3.00264 14.2798 3.00264 14.5426C3.00264 14.8054 3.07168 15.0636 3.20284 15.2913C3.334 15.519 3.52268 15.7082 3.74999 15.8401ZM18 8.4751L28.5 14.4751L18 20.5501L7.49998 14.5351L18 8.4751ZM30.75 20.1601L18 27.5251L5.24998 20.1601C5.07968 20.0603 4.89135 19.9951 4.69579 19.9682C4.50024 19.9414 4.3013 19.9533 4.11039 20.0035C3.91948 20.0537 3.74035 20.141 3.58326 20.2606C3.42618 20.3801 3.29423 20.5295 3.19499 20.7001C3.09581 20.8713 3.03148 21.0604 3.0057 21.2566C2.97993 21.4528 2.99322 21.6521 3.0448 21.8431C3.09639 22.0341 3.18526 22.213 3.30628 22.3696C3.42731 22.5261 3.5781 22.6571 3.74999 22.7551L17.25 30.5551C17.478 30.6867 17.7367 30.7561 18 30.7561C18.2633 30.7561 18.522 30.6867 18.75 30.5551L32.25 22.7551C32.4219 22.6571 32.5727 22.5261 32.6937 22.3696C32.8147 22.213 32.9036 22.0341 32.9552 21.8431C33.0067 21.6521 33.02 21.4528 32.9943 21.2566C32.9685 21.0604 32.9042 20.8713 32.805 20.7001C32.7057 20.5295 32.5738 20.3801 32.4167 20.2606C32.2596 20.141 32.0805 20.0537 31.8896 20.0035C31.6987 19.9533 31.4997 19.9414 31.3042 19.9682C31.1086 19.9951 30.9203 20.0603 30.75 20.1601Z" fill="#545454"/>
</svg>
