<svg width="38" height="38" viewBox="0 0 38 38" fill="none" xmlns="http://www.w3.org/2000/svg">
<path d="M18.8774 6.55848C18.6638 6.41185 18.4118 6.3335 18.154 6.3335C17.8962 6.3335 17.6442 6.41185 17.4306 6.55848C17.0431 6.82084 8.14282 13.1175 8.14282 22.4051C8.14282 25.1014 9.19757 27.6873 11.075 29.5939C12.9525 31.5005 15.4989 32.5716 18.154 32.5716C20.8091 32.5716 23.3555 31.5005 25.233 29.5939C27.1105 27.6873 28.1652 25.1014 28.1652 22.4051C28.1652 12.9601 19.252 6.80772 18.8774 6.55848ZM18.154 29.948C16.1851 29.9445 14.2979 29.1487 12.9056 27.7349C11.5134 26.3211 10.7298 24.4045 10.7264 22.4051C10.7264 15.8461 16.1647 10.9006 18.154 9.28704C20.1562 10.8743 25.5817 15.8461 25.5817 22.4051C25.5783 24.4045 24.7946 26.3211 23.4024 27.7349C22.0102 29.1487 20.1229 29.9445 18.154 29.948Z" fill="#545454"/>
</svg>
